<svg xmlns="http://www.w3.org/2000/svg" xmlns:xlink="http://www.w3.org/1999/xlink" width="500" zoomAndPan="magnify" viewBox="0 0 375 374.999991" height="500" preserveAspectRatio="xMidYMid meet" version="1.0"><defs><clipPath id="66f6c4df09"><path d="M 112.5 101.726562 L 262.5 101.726562 L 262.5 250.976562 L 112.5 250.976562 Z M 112.5 101.726562 " clip-rule="nonzero"/></clipPath></defs><g clip-path="url(#66f6c4df09)"><path fill="#d9d9d9" d="M 187.53125 101.773438 C 146.085938 101.773438 112.5 135.359375 112.5 176.804688 C 112.5 214.03125 139.65625 244.953125 175.191406 250.800781 L 175.191406 199.933594 L 156.089844 199.933594 L 156.089844 177.652344 L 175.191406 177.652344 L 175.191406 161.476562 C 175.191406 143.933594 189.417969 132.046875 206.957031 132.046875 C 214.753906 132.046875 219.625 133.214844 219.625 133.214844 L 219.625 151.925781 L 206.957031 151.925781 C 201.695312 151.925781 197.40625 156.214844 197.40625 161.476562 L 197.40625 177.652344 L 217.871094 177.652344 L 215.011719 199.933594 L 197.40625 199.933594 L 197.40625 251.125 C 234.109375 246.253906 262.433594 214.808594 262.433594 176.804688 C 262.5 135.359375 228.914062 101.773438 187.53125 101.773438 Z M 187.53125 101.773438 " fill-opacity="1" fill-rule="nonzero"/></g></svg>