<svg xmlns="http://www.w3.org/2000/svg" xmlns:xlink="http://www.w3.org/1999/xlink" width="500" zoomAndPan="magnify" viewBox="0 0 375 374.999991" height="500" preserveAspectRatio="xMidYMid meet" version="1.0"><defs><clipPath id="0dd7c4942c"><path d="M 124.5 113.726562 L 274.5 113.726562 L 274.5 263.726562 L 124.5 263.726562 Z M 124.5 113.726562 " clip-rule="nonzero"/></clipPath></defs><path fill="#d9d9d9" d="M 199.5 172.101562 C 190.34375 172.101562 182.875 179.570312 182.875 188.726562 C 182.875 197.878906 190.34375 205.347656 199.5 205.347656 C 208.65625 205.347656 216.125 197.878906 216.125 188.726562 C 216.125 179.570312 208.65625 172.101562 199.5 172.101562 Z M 199.5 172.101562 " fill-opacity="1" fill-rule="nonzero"/><path fill="#d9d9d9" d="M 221.835938 147.945312 L 177.164062 147.945312 C 167.03125 147.945312 158.722656 156.191406 158.722656 166.386719 L 158.722656 211.0625 C 158.722656 221.191406 166.96875 229.503906 177.164062 229.503906 L 221.835938 229.503906 C 231.96875 229.503906 240.277344 221.257812 240.277344 211.0625 L 240.277344 166.386719 C 240.214844 156.191406 231.96875 147.945312 221.835938 147.945312 Z M 199.5 213.726562 C 185.667969 213.726562 174.433594 202.492188 174.433594 188.660156 C 174.433594 174.828125 185.667969 163.59375 199.5 163.59375 C 213.332031 163.59375 224.566406 174.828125 224.566406 188.660156 C 224.5 202.492188 213.265625 213.726562 199.5 213.726562 Z M 226.316406 167.816406 C 223.007812 167.816406 220.277344 165.089844 220.277344 161.777344 C 220.277344 158.464844 223.007812 155.738281 226.316406 155.738281 C 229.628906 155.738281 232.355469 158.464844 232.355469 161.777344 C 232.355469 165.152344 229.695312 167.816406 226.316406 167.816406 Z M 226.316406 167.816406 " fill-opacity="1" fill-rule="nonzero"/><g clip-path="url(#0dd7c4942c)"><path fill="#d9d9d9" d="M 199.5 113.726562 C 158.070312 113.726562 124.5 147.296875 124.5 188.726562 C 124.5 230.152344 158.070312 263.726562 199.5 263.726562 C 240.929688 263.726562 274.5 230.152344 274.5 188.726562 C 274.433594 147.296875 240.863281 113.726562 199.5 113.726562 Z M 248.65625 211.0625 C 248.65625 225.867188 236.578125 237.945312 221.773438 237.945312 L 177.164062 237.945312 C 162.355469 237.945312 150.277344 225.867188 150.277344 211.0625 L 150.277344 166.386719 C 150.277344 151.582031 162.355469 139.503906 177.164062 139.503906 L 221.835938 139.503906 C 236.644531 139.503906 248.722656 151.582031 248.722656 166.386719 L 248.722656 211.0625 Z M 248.65625 211.0625 " fill-opacity="1" fill-rule="nonzero"/></g></svg>