<svg xmlns="http://www.w3.org/2000/svg" xmlns:xlink="http://www.w3.org/1999/xlink" width="500" zoomAndPan="magnify" viewBox="0 0 375 374.999991" height="500" preserveAspectRatio="xMidYMid meet" version="1.0"><defs><clipPath id="fd3263f9a1"><path d="M 125 112.5 L 274.949219 112.5 L 274.949219 262.5 L 125 262.5 Z M 125 112.5 " clip-rule="nonzero"/></clipPath></defs><g clip-path="url(#fd3263f9a1)"><path fill="#d9d9d9" d="M 262.417969 112.5 L 137.554688 112.5 C 130.652344 112.5 125.097656 118.128906 125.097656 124.957031 L 125.097656 250.042969 C 125.097656 256.945312 130.726562 262.5 137.554688 262.5 L 262.34375 262.5 C 269.246094 262.5 274.796875 256.871094 274.796875 250.042969 L 274.796875 124.957031 C 274.875 118.128906 269.320312 112.5 262.417969 112.5 Z M 169.445312 236.238281 L 147.308594 236.238281 L 147.308594 169.753906 L 169.445312 169.753906 Z M 158.339844 161.722656 C 151.363281 161.722656 145.734375 156.097656 145.734375 149.117188 C 145.734375 142.140625 151.363281 136.511719 158.339844 136.511719 C 165.320312 136.511719 170.945312 142.140625 170.945312 149.117188 C 170.945312 156.097656 165.320312 161.722656 158.339844 161.722656 Z M 252.738281 236.238281 L 230.527344 236.238281 L 230 196.765625 C 230 196.765625 230.527344 186.261719 219.046875 186.335938 C 207.566406 186.410156 205.988281 196.765625 205.988281 196.765625 L 205.988281 236.238281 L 183.628906 236.238281 L 183.628906 169.753906 L 205.089844 169.753906 L 205.089844 178.90625 C 205.089844 178.90625 205.988281 175.90625 210.941406 172.378906 C 215.894531 168.851562 224.074219 168.101562 227.601562 168.253906 C 231.125 168.402344 235.929688 167.800781 243.957031 173.355469 C 252.585938 179.285156 252.8125 194.816406 252.8125 194.816406 Z M 252.738281 236.238281 " fill-opacity="1" fill-rule="nonzero"/></g></svg>