<svg xmlns="http://www.w3.org/2000/svg" xmlns:xlink="http://www.w3.org/1999/xlink" width="500" zoomAndPan="magnify" viewBox="0 0 375 374.999991" height="500" preserveAspectRatio="xMidYMid meet" version="1.0"><defs><g/><clipPath id="5766ebe2eb"><path d="M 43.210938 133 L 111 133 L 111 226 L 43.210938 226 Z M 43.210938 133 " clip-rule="nonzero"/></clipPath><clipPath id="2a00bbf217"><path d="M 117 121.601562 L 121.210938 121.601562 L 121.210938 253.601562 L 117 253.601562 Z M 117 121.601562 " clip-rule="nonzero"/></clipPath></defs><g clip-path="url(#5766ebe2eb)"><path fill="#545454" d="M 43.265625 157.304688 L 43.265625 217.355469 C 43.265625 222.066406 47.121094 225.921875 51.832031 225.921875 L 81.679688 225.921875 C 76.941406 219.746094 74.125 212.015625 74.125 203.632812 C 74.125 183.394531 90.53125 166.992188 110.769531 166.992188 L 110.769531 133.3125 L 97.601562 133.3125 C 94.730469 133.3125 92.070312 134.851562 90.632812 137.339844 L 84.050781 148.742188 L 51.832031 148.742188 C 47.121094 148.742188 43.265625 152.59375 43.265625 157.304688 Z M 53.304688 157.410156 C 53.304688 156.726562 53.867188 156.167969 54.546875 156.167969 L 74.011719 156.167969 C 74.695312 156.167969 75.253906 156.726562 75.253906 157.410156 L 75.253906 162.378906 C 75.253906 163.0625 74.691406 163.621094 74.011719 163.621094 L 54.550781 163.621094 C 53.867188 163.621094 53.308594 163.058594 53.308594 162.378906 L 53.308594 157.410156 Z M 53.304688 157.410156 " fill-opacity="1" fill-rule="nonzero"/></g><path fill="#545454" d="M 107.15625 179.613281 C 106.03125 179.777344 104.929688 180.023438 103.855469 180.339844 C 106.835938 182.3125 108.808594 185.699219 108.808594 189.546875 C 108.808594 195.644531 103.863281 200.585938 97.769531 200.585938 C 93.671875 200.585938 90.097656 198.351562 88.191406 195.035156 C 87.636719 196.550781 87.234375 198.140625 86.992188 199.777344 C 84.828125 214.65625 96.304688 227.425781 110.765625 227.425781 L 110.765625 234.402344 C 102.480469 234.402344 94.695312 231.175781 88.835938 225.320312 C 82.980469 219.464844 79.753906 211.675781 79.753906 203.390625 C 79.753906 195.105469 82.980469 187.320312 88.835938 181.460938 C 94.695312 175.605469 102.480469 172.378906 110.765625 172.378906 L 110.765625 179.355469 C 109.582031 179.351562 108.375 179.4375 107.15625 179.613281 Z M 107.15625 179.613281 " fill-opacity="1" fill-rule="nonzero"/><g clip-path="url(#2a00bbf217)"><path fill="#545454" d="M 117.648438 121.601562 L 121.082031 121.601562 L 121.082031 253.398438 L 117.648438 253.398438 Z M 117.648438 121.601562 " fill-opacity="1" fill-rule="nonzero"/></g><g fill="#545454" fill-opacity="1"><g transform="translate(127.225866, 201.24135)"><g><path d="M 4.203125 -57.8125 L 25.296875 -57.8125 C 31.179688 -57.8125 35.945312 -56.289062 39.59375 -53.25 C 43.238281 -50.21875 45.0625 -45.804688 45.0625 -40.015625 C 45.0625 -34.222656 43.210938 -29.675781 39.515625 -26.375 C 35.828125 -23.082031 31.085938 -21.4375 25.296875 -21.4375 L 17.375 -21.4375 L 17.375 0 L 4.203125 0 Z M 17.375 -31.953125 L 21.09375 -31.953125 C 24.039062 -31.953125 26.457031 -32.546875 28.34375 -33.734375 C 30.238281 -34.929688 31.1875 -36.882812 31.1875 -39.59375 C 31.1875 -42.351562 30.238281 -44.328125 28.34375 -45.515625 C 26.457031 -46.703125 24.039062 -47.296875 21.09375 -47.296875 L 17.375 -47.296875 Z M 17.375 -31.953125 "/></g></g></g><g fill="#545454" fill-opacity="1"><g transform="translate(171.024402, 201.24135)"><g><path d="M 4.203125 0 L 4.203125 -60.265625 L 16.609375 -60.265625 L 16.609375 -32.171875 L 16.75 -32.171875 C 19.96875 -35.390625 23.398438 -37 27.046875 -37 C 28.828125 -37 30.59375 -36.765625 32.34375 -36.296875 C 34.09375 -35.828125 35.769531 -35.101562 37.375 -34.125 C 38.988281 -33.144531 40.296875 -31.753906 41.296875 -29.953125 C 42.304688 -28.160156 42.8125 -26.070312 42.8125 -23.6875 L 42.8125 0 L 30.40625 0 L 30.40625 -20.328125 C 30.40625 -22.191406 29.8125 -23.820312 28.625 -25.21875 C 27.4375 -26.625 25.882812 -27.328125 23.96875 -27.328125 C 22.09375 -27.328125 20.394531 -26.601562 18.875 -25.15625 C 17.363281 -23.707031 16.609375 -22.097656 16.609375 -20.328125 L 16.609375 0 Z M 4.203125 0 "/></g></g></g><g fill="#ff914d" fill-opacity="1"><g transform="translate(214.483673, 201.24135)"><g><path d="M 7.59375 -4.265625 C 3.601562 -7.816406 1.609375 -12.375 1.609375 -17.9375 C 1.609375 -23.5 3.6875 -28.066406 7.84375 -31.640625 C 12 -35.210938 17.140625 -37 23.265625 -37 C 29.296875 -37 34.375 -35.195312 38.5 -31.59375 C 42.632812 -28 44.703125 -23.445312 44.703125 -17.9375 C 44.703125 -12.425781 42.679688 -7.882812 38.640625 -4.3125 C 34.609375 -0.738281 29.484375 1.046875 23.265625 1.046875 C 16.816406 1.046875 11.59375 -0.722656 7.59375 -4.265625 Z M 17.203125 -24.03125 C 15.585938 -22.445312 14.78125 -20.414062 14.78125 -17.9375 C 14.78125 -15.457031 15.550781 -13.4375 17.09375 -11.875 C 18.632812 -10.3125 20.671875 -9.53125 23.203125 -9.53125 C 25.628906 -9.53125 27.625 -10.320312 29.1875 -11.90625 C 30.75 -13.5 31.53125 -15.507812 31.53125 -17.9375 C 31.53125 -20.414062 30.722656 -22.445312 29.109375 -24.03125 C 27.503906 -25.625 25.535156 -26.421875 23.203125 -26.421875 C 20.816406 -26.421875 18.816406 -25.625 17.203125 -24.03125 Z M 17.203125 -24.03125 "/></g></g></g><g fill="#545454" fill-opacity="1"><g transform="translate(257.936795, 201.24135)"><g><path d="M 6.3125 -35.953125 L 6.3125 -49.328125 L 18.703125 -49.328125 L 18.703125 -35.953125 L 26.28125 -35.953125 L 26.28125 -26.484375 L 18.703125 -26.484375 L 18.703125 -15.0625 C 18.703125 -11.75 19.640625 -10.09375 21.515625 -10.09375 C 21.984375 -10.09375 22.472656 -10.1875 22.984375 -10.375 C 23.492188 -10.5625 23.890625 -10.75 24.171875 -10.9375 L 24.59375 -11.21875 L 27.6875 -1.1875 C 25.019531 0.300781 21.984375 1.046875 18.578125 1.046875 C 16.234375 1.046875 14.21875 0.640625 12.53125 -0.171875 C 10.851562 -0.992188 9.582031 -2.09375 8.71875 -3.46875 C 7.851562 -4.84375 7.234375 -6.289062 6.859375 -7.8125 C 6.492188 -9.332031 6.3125 -10.957031 6.3125 -12.6875 L 6.3125 -26.484375 L 1.125 -26.484375 L 1.125 -35.953125 Z M 6.3125 -35.953125 "/></g></g></g><g fill="#ff914d" fill-opacity="1"><g transform="translate(282.745391, 201.24135)"><g><path d="M 7.59375 -4.265625 C 3.601562 -7.816406 1.609375 -12.375 1.609375 -17.9375 C 1.609375 -23.5 3.6875 -28.066406 7.84375 -31.640625 C 12 -35.210938 17.140625 -37 23.265625 -37 C 29.296875 -37 34.375 -35.195312 38.5 -31.59375 C 42.632812 -28 44.703125 -23.445312 44.703125 -17.9375 C 44.703125 -12.425781 42.679688 -7.882812 38.640625 -4.3125 C 34.609375 -0.738281 29.484375 1.046875 23.265625 1.046875 C 16.816406 1.046875 11.59375 -0.722656 7.59375 -4.265625 Z M 17.203125 -24.03125 C 15.585938 -22.445312 14.78125 -20.414062 14.78125 -17.9375 C 14.78125 -15.457031 15.550781 -13.4375 17.09375 -11.875 C 18.632812 -10.3125 20.671875 -9.53125 23.203125 -9.53125 C 25.628906 -9.53125 27.625 -10.320312 29.1875 -11.90625 C 30.75 -13.5 31.53125 -15.507812 31.53125 -17.9375 C 31.53125 -20.414062 30.722656 -22.445312 29.109375 -24.03125 C 27.503906 -25.625 25.535156 -26.421875 23.203125 -26.421875 C 20.816406 -26.421875 18.816406 -25.625 17.203125 -24.03125 Z M 17.203125 -24.03125 "/></g></g></g><g fill="#545454" fill-opacity="1"><g transform="translate(135.489752, 231.360249)"><g><path d="M 8.796875 0.21875 C 7.691406 0.21875 6.664062 0.0234375 5.71875 -0.359375 C 4.769531 -0.753906 3.945312 -1.300781 3.25 -2 C 2.550781 -2.695312 2.003906 -3.519531 1.609375 -4.46875 C 1.222656 -5.414062 1.03125 -6.441406 1.03125 -7.546875 C 1.03125 -8.648438 1.222656 -9.675781 1.609375 -10.625 C 2.003906 -11.570312 2.550781 -12.394531 3.25 -13.09375 C 3.945312 -13.789062 4.769531 -14.332031 5.71875 -14.71875 C 6.664062 -15.113281 7.691406 -15.3125 8.796875 -15.3125 C 9.554688 -15.3125 10.289062 -15.21875 11 -15.03125 C 11.71875 -14.851562 12.359375 -14.585938 12.921875 -14.234375 C 13.015625 -14.160156 13.085938 -14.078125 13.140625 -13.984375 C 13.191406 -13.890625 13.21875 -13.789062 13.21875 -13.6875 C 13.21875 -13.488281 13.148438 -13.328125 13.015625 -13.203125 C 12.890625 -13.085938 12.753906 -13.03125 12.609375 -13.03125 C 12.535156 -13.03125 12.46875 -13.039062 12.40625 -13.0625 C 12.34375 -13.082031 12.28125 -13.101562 12.21875 -13.125 C 11.738281 -13.40625 11.207031 -13.625 10.625 -13.78125 C 10.050781 -13.9375 9.441406 -14.015625 8.796875 -14.015625 C 7.554688 -14.015625 6.453125 -13.734375 5.484375 -13.171875 C 4.523438 -12.609375 3.773438 -11.835938 3.234375 -10.859375 C 2.691406 -9.890625 2.421875 -8.785156 2.421875 -7.546875 C 2.421875 -6.304688 2.691406 -5.195312 3.234375 -4.21875 C 3.773438 -3.25 4.523438 -2.484375 5.484375 -1.921875 C 6.453125 -1.359375 7.554688 -1.078125 8.796875 -1.078125 C 9.441406 -1.078125 10.09375 -1.171875 10.75 -1.359375 C 11.40625 -1.546875 11.96875 -1.796875 12.4375 -2.109375 L 12.328125 -1.65625 L 12.328125 -6.625 L 12.65625 -6.3125 L 8.921875 -6.3125 C 8.734375 -6.3125 8.578125 -6.375 8.453125 -6.5 C 8.328125 -6.632812 8.265625 -6.789062 8.265625 -6.96875 C 8.265625 -7.164062 8.328125 -7.320312 8.453125 -7.4375 C 8.578125 -7.550781 8.734375 -7.609375 8.921875 -7.609375 L 13.046875 -7.609375 C 13.234375 -7.609375 13.382812 -7.546875 13.5 -7.421875 C 13.625 -7.304688 13.6875 -7.15625 13.6875 -6.96875 L 13.6875 -1.765625 C 13.6875 -1.648438 13.65625 -1.539062 13.59375 -1.4375 C 13.539062 -1.34375 13.46875 -1.257812 13.375 -1.1875 C 12.738281 -0.757812 12.023438 -0.414062 11.234375 -0.15625 C 10.453125 0.09375 9.640625 0.21875 8.796875 0.21875 Z M 8.796875 0.21875 "/></g></g></g><g fill="#545454" fill-opacity="1"><g transform="translate(167.712542, 231.360249)"><g><path d="M 2.765625 0 C 2.546875 0 2.367188 -0.0625 2.234375 -0.1875 C 2.097656 -0.320312 2.03125 -0.472656 2.03125 -0.640625 L 2.03125 -14.453125 C 2.03125 -14.617188 2.09375 -14.765625 2.21875 -14.890625 C 2.351562 -15.023438 2.503906 -15.09375 2.671875 -15.09375 L 8.5 -15.09375 C 9.3125 -15.09375 10.039062 -14.914062 10.6875 -14.5625 C 11.34375 -14.207031 11.851562 -13.722656 12.21875 -13.109375 C 12.582031 -12.492188 12.765625 -11.796875 12.765625 -11.015625 C 12.765625 -10.378906 12.648438 -9.796875 12.421875 -9.265625 C 12.191406 -8.734375 11.867188 -8.285156 11.453125 -7.921875 C 11.035156 -7.554688 10.566406 -7.285156 10.046875 -7.109375 L 9.296875 -7.359375 C 9.828125 -7.304688 10.320312 -7.132812 10.78125 -6.84375 C 11.238281 -6.550781 11.609375 -6.148438 11.890625 -5.640625 C 12.171875 -5.128906 12.316406 -4.515625 12.328125 -3.796875 C 12.347656 -3.179688 12.378906 -2.695312 12.421875 -2.34375 C 12.472656 -2 12.550781 -1.738281 12.65625 -1.5625 C 12.757812 -1.394531 12.890625 -1.265625 13.046875 -1.171875 C 13.191406 -1.078125 13.285156 -0.953125 13.328125 -0.796875 C 13.378906 -0.640625 13.363281 -0.488281 13.28125 -0.34375 C 13.226562 -0.226562 13.144531 -0.144531 13.03125 -0.09375 C 12.925781 -0.0390625 12.816406 -0.015625 12.703125 -0.015625 C 12.585938 -0.015625 12.472656 -0.046875 12.359375 -0.109375 C 12.148438 -0.222656 11.941406 -0.398438 11.734375 -0.640625 C 11.523438 -0.890625 11.351562 -1.25 11.21875 -1.71875 C 11.082031 -2.195312 11.015625 -2.859375 11.015625 -3.703125 C 11.015625 -4.265625 10.925781 -4.722656 10.75 -5.078125 C 10.570312 -5.441406 10.34375 -5.71875 10.0625 -5.90625 C 9.78125 -6.101562 9.46875 -6.242188 9.125 -6.328125 C 8.789062 -6.410156 8.472656 -6.453125 8.171875 -6.453125 L 3.140625 -6.453125 L 3.390625 -6.75 L 3.390625 -0.640625 C 3.390625 -0.472656 3.332031 -0.320312 3.21875 -0.1875 C 3.101562 -0.0625 2.953125 0 2.765625 0 Z M 3.140625 -7.640625 L 8.5625 -7.640625 C 9.050781 -7.679688 9.507812 -7.835938 9.9375 -8.109375 C 10.375 -8.390625 10.722656 -8.773438 10.984375 -9.265625 C 11.253906 -9.753906 11.390625 -10.320312 11.390625 -10.96875 C 11.390625 -11.789062 11.109375 -12.472656 10.546875 -13.015625 C 9.992188 -13.554688 9.273438 -13.828125 8.390625 -13.828125 L 3.234375 -13.828125 L 3.390625 -14.125 L 3.390625 -7.328125 Z M 3.140625 -7.640625 "/></g></g></g><g fill="#545454" fill-opacity="1"><g transform="translate(199.396555, 231.360249)"><g><path d="M 7.078125 -13.4375 L 1.828125 -0.40625 C 1.773438 -0.257812 1.695312 -0.148438 1.59375 -0.078125 C 1.488281 -0.015625 1.375 0.015625 1.25 0.015625 C 1.050781 0.015625 0.898438 -0.0351562 0.796875 -0.140625 C 0.691406 -0.242188 0.632812 -0.378906 0.625 -0.546875 C 0.613281 -0.609375 0.617188 -0.691406 0.640625 -0.796875 L 6.34375 -14.734375 C 6.414062 -14.890625 6.503906 -15 6.609375 -15.0625 C 6.710938 -15.125 6.835938 -15.15625 6.984375 -15.15625 C 7.128906 -15.15625 7.253906 -15.113281 7.359375 -15.03125 C 7.472656 -14.957031 7.554688 -14.859375 7.609375 -14.734375 L 13.28125 -0.859375 C 13.3125 -0.773438 13.328125 -0.691406 13.328125 -0.609375 C 13.328125 -0.398438 13.257812 -0.242188 13.125 -0.140625 C 13 -0.0351562 12.847656 0.015625 12.671875 0.015625 C 12.535156 0.015625 12.410156 -0.0195312 12.296875 -0.09375 C 12.191406 -0.175781 12.109375 -0.28125 12.046875 -0.40625 L 6.6875 -13.515625 Z M 3.078125 -4.359375 L 3.625 -5.625 L 10.3125 -5.625 L 10.5625 -4.359375 Z M 3.078125 -4.359375 "/></g></g></g><g fill="#545454" fill-opacity="1"><g transform="translate(230.584902, 231.360249)"><g><path d="M 7.78125 -15.09375 C 8.582031 -15.09375 9.289062 -14.910156 9.90625 -14.546875 C 10.53125 -14.179688 11.019531 -13.671875 11.375 -13.015625 C 11.738281 -12.367188 11.921875 -11.628906 11.921875 -10.796875 C 11.921875 -9.960938 11.738281 -9.210938 11.375 -8.546875 C 11.019531 -7.878906 10.53125 -7.347656 9.90625 -6.953125 C 9.289062 -6.566406 8.582031 -6.375 7.78125 -6.375 L 3.21875 -6.375 L 3.328125 -6.59375 L 3.328125 -0.640625 C 3.328125 -0.472656 3.257812 -0.320312 3.125 -0.1875 C 3 -0.0625 2.847656 0 2.671875 0 C 2.472656 0 2.316406 -0.0625 2.203125 -0.1875 C 2.085938 -0.320312 2.03125 -0.472656 2.03125 -0.640625 L 2.03125 -14.453125 C 2.03125 -14.617188 2.09375 -14.765625 2.21875 -14.890625 C 2.351562 -15.023438 2.503906 -15.09375 2.671875 -15.09375 Z M 7.78125 -7.640625 C 8.34375 -7.640625 8.832031 -7.773438 9.25 -8.046875 C 9.664062 -8.328125 9.992188 -8.707031 10.234375 -9.1875 C 10.472656 -9.675781 10.59375 -10.210938 10.59375 -10.796875 C 10.59375 -11.390625 10.472656 -11.910156 10.234375 -12.359375 C 9.992188 -12.816406 9.664062 -13.175781 9.25 -13.4375 C 8.832031 -13.695312 8.34375 -13.828125 7.78125 -13.828125 L 3.21875 -13.828125 L 3.328125 -14.015625 L 3.328125 -7.5 L 3.1875 -7.640625 Z M 7.78125 -7.640625 "/></g></g></g><g fill="#545454" fill-opacity="1"><g transform="translate(260.674158, 231.360249)"><g><path d="M 2.71875 -15.09375 C 2.882812 -15.09375 3.035156 -15.023438 3.171875 -14.890625 C 3.316406 -14.765625 3.390625 -14.609375 3.390625 -14.421875 L 3.390625 -0.671875 C 3.367188 -0.484375 3.289062 -0.320312 3.15625 -0.1875 C 3.019531 -0.0625 2.867188 0 2.703125 0 C 2.492188 0 2.328125 -0.0625 2.203125 -0.1875 C 2.085938 -0.320312 2.03125 -0.484375 2.03125 -0.671875 L 2.03125 -14.421875 C 2.03125 -14.609375 2.09375 -14.765625 2.21875 -14.890625 C 2.351562 -15.023438 2.519531 -15.09375 2.71875 -15.09375 Z M 12.828125 -15.09375 C 13.023438 -15.09375 13.1875 -15.023438 13.3125 -14.890625 C 13.4375 -14.765625 13.5 -14.609375 13.5 -14.421875 L 13.5 -0.671875 C 13.488281 -0.484375 13.421875 -0.320312 13.296875 -0.1875 C 13.171875 -0.0625 13.007812 0 12.8125 0 C 12.625 0 12.460938 -0.0625 12.328125 -0.1875 C 12.203125 -0.320312 12.140625 -0.484375 12.140625 -0.671875 L 12.140625 -14.421875 C 12.140625 -14.609375 12.207031 -14.765625 12.34375 -14.890625 C 12.476562 -15.023438 12.640625 -15.09375 12.828125 -15.09375 Z M 2.609375 -8.34375 L 12.84375 -8.34375 L 12.828125 -7.09375 L 2.515625 -7.09375 Z M 2.609375 -8.34375 "/></g></g></g><g fill="#545454" fill-opacity="1"><g transform="translate(293.435718, 231.360249)"><g><path d="M 11.015625 -15.1875 C 11.203125 -15.1875 11.359375 -15.113281 11.484375 -14.96875 C 11.609375 -14.832031 11.671875 -14.6875 11.671875 -14.53125 C 11.671875 -14.457031 11.65625 -14.390625 11.625 -14.328125 C 11.601562 -14.265625 11.570312 -14.195312 11.53125 -14.125 L 6.46875 -7.15625 L 6.734375 -8 L 6.734375 -0.640625 C 6.734375 -0.472656 6.664062 -0.320312 6.53125 -0.1875 C 6.40625 -0.0625 6.25 0 6.0625 0 C 5.875 0 5.71875 -0.0625 5.59375 -0.1875 C 5.46875 -0.320312 5.40625 -0.472656 5.40625 -0.640625 L 5.40625 -7.84375 L 5.515625 -7.328125 L 0.578125 -14.078125 C 0.523438 -14.148438 0.484375 -14.222656 0.453125 -14.296875 C 0.421875 -14.378906 0.40625 -14.457031 0.40625 -14.53125 C 0.40625 -14.71875 0.476562 -14.875 0.625 -15 C 0.78125 -15.125 0.9375 -15.1875 1.09375 -15.1875 C 1.3125 -15.1875 1.492188 -15.082031 1.640625 -14.875 L 6.28125 -8.5625 L 5.953125 -8.609375 L 10.453125 -14.875 C 10.597656 -15.082031 10.785156 -15.1875 11.015625 -15.1875 Z M 11.015625 -15.1875 "/></g></g></g></svg>