<svg xmlns="http://www.w3.org/2000/svg" xmlns:xlink="http://www.w3.org/1999/xlink" width="500" zoomAndPan="magnify" viewBox="0 0 375 374.999991" height="500" preserveAspectRatio="xMidYMid meet" version="1.0"><defs><clipPath id="41735d2352"><path d="M 112.5 112.910156 L 270.75 112.910156 L 270.75 271 L 112.5 271 Z M 112.5 112.910156 " clip-rule="nonzero"/></clipPath></defs><g clip-path="url(#41735d2352)"><path fill="#d9d9d9" d="M 191.464844 112.90625 C 147.746094 112.90625 112.492188 148.515625 112.492188 191.878906 C 112.492188 235.597656 148.101562 270.855469 191.464844 270.855469 C 235.183594 270.855469 270.4375 235.246094 270.4375 191.878906 C 270.4375 148.515625 235.183594 112.90625 191.464844 112.90625 Z M 240.472656 229.957031 C 238.355469 237.007812 228.835938 247.230469 220.023438 247.230469 L 219.316406 246.878906 C 206.273438 246.175781 188.292969 233.835938 171.722656 213.738281 L 165.726562 206.335938 C 149.15625 186.238281 140.34375 166.496094 142.457031 153.804688 C 143.867188 144.636719 157.265625 137.234375 165.023438 137.234375 C 168.902344 137.234375 170.3125 138.996094 170.664062 140.40625 C 174.894531 148.164062 180.535156 161.558594 180.535156 166.496094 L 180.535156 167.199219 C 179.476562 169.667969 177.363281 171.078125 175.597656 172.136719 C 173.132812 173.546875 171.722656 174.605469 171.367188 177.074219 C 171.367188 177.777344 172.074219 181.65625 183.003906 195.054688 L 187.585938 200.695312 C 198.515625 213.738281 202.042969 215.148438 202.746094 215.148438 C 205.566406 215.5 206.625 214.445312 208.738281 212.328125 C 210.152344 210.566406 211.914062 208.804688 214.382812 208.449219 L 215.085938 208.449219 C 220.023438 209.507812 232.007812 217.265625 239.058594 223.257812 C 240.117188 223.609375 241.882812 225.375 240.472656 229.957031 Z M 240.472656 229.957031 " fill-opacity="1" fill-rule="nonzero"/></g></svg>